<?xml version="1.0" encoding="UTF-8" standalone="no"?>
<!-- Created with Inkscape (http://www.inkscape.org/) -->

<svg
   xmlns:dc="http://purl.org/dc/elements/1.1/"
   xmlns:cc="http://creativecommons.org/ns#"
   xmlns:rdf="http://www.w3.org/1999/02/22-rdf-syntax-ns#"
   xmlns:svg="http://www.w3.org/2000/svg"
   xmlns="http://www.w3.org/2000/svg"
   xmlns:sodipodi="http://sodipodi.sourceforge.net/DTD/sodipodi-0.dtd"
   xmlns:inkscape="http://www.inkscape.org/namespaces/inkscape"
   version="1.1"
   id="svg845"
   width="1375.8463"
   height="797.28229"
   viewBox="0 0 1375.8464 797.28229"
   sodipodi:docname="logo.svg"
   inkscape:version="0.92.4 (5da689c313, 2019-01-14)">
  <metadata
     id="metadata851">
    <rdf:RDF>
      <cc:Work
         rdf:about="">
        <dc:format>image/svg+xml</dc:format>
        <dc:type
           rdf:resource="http://purl.org/dc/dcmitype/StillImage" />
        <dc:title></dc:title>
      </cc:Work>
    </rdf:RDF>
  </metadata>
  <defs
     id="defs849" />
  <sodipodi:namedview
     pagecolor="#ffffff"
     bordercolor="#666666"
     borderopacity="1"
     objecttolerance="10"
     gridtolerance="10"
     guidetolerance="10"
     inkscape:pageopacity="0"
     inkscape:pageshadow="2"
     inkscape:window-width="1366"
     inkscape:window-height="715"
     id="namedview847"
     showgrid="false"
     inkscape:zoom="0.32"
     inkscape:cx="272.00196"
     inkscape:cy="432.53604"
     inkscape:window-x="-8"
     inkscape:window-y="-8"
     inkscape:window-maximized="1"
     inkscape:current-layer="svg845" />
  <g
     id="g855"
     transform="translate(-67.337016,-105.01266)">
    <path
       style="fill:#f6a39e;stroke-width:0.32000002"
       d="m 956.16006,902.06531 c -69.22173,-3.86902 -128.6304,-23.80592 -180.16001,-60.45968 -38.96544,-27.7167 -73.628,-66.04857 -100.70519,-111.36563 -8.60387,-14.39965 -20.91069,-37.70314 -20.49018,-38.79898 0.1218,-0.31744 6.46183,-2.57305 18.05156,-6.42224 26.51606,-8.80652 46.79322,-15.07945 70.50381,-21.811 17.32371,-4.91828 16.21443,-4.63901 16.75197,-4.21754 0.25936,0.20336 1.94822,2.81776 3.75306,5.80976 30.43584,50.45552 68.13056,87.2353 112.29498,109.56922 27.50186,13.90771 54.45172,21.50425 87.04001,24.53465 7.52416,0.69968 28.92678,0.97485 37.32893,0.47997 27.5146,-1.62064 53.5687,-6.51203 82.9911,-15.58074 36.7216,-11.31849 69.0182,-27.24729 96.0602,-47.37724 l 5.3798,-4.00468 v -87.68915 -87.68915 l -13.2,0.21194 c -31.9237,0.5126 -55.4846,1.3879 -82.8,3.07606 -265.74206,16.42352 -528.00201,97.3352 -764.12385,235.74522 -45.08223,26.42633 -90.48866,55.79456 -132.75185,85.86198 L 183.56368,888 H 125.5318 c -47.752768,0 -58.060573,-0.0748 -58.193869,-0.42214 -0.08909,-0.23216 6.338692,-15.31616 14.283966,-33.52 C 166.39013,659.84093 265.96854,431.8624 368.63468,196.96 c 19.92288,-45.584 36.372,-83.06 36.55357,-83.28 0.26186,-0.31725 12.03824,-0.4 56.92359,-0.4 h 56.59344 l 0.47501,0.72495 c 0.70336,1.07348 163.37976,373.61412 163.37976,374.15143 0,0.516 0.46979,0.37623 -10.24,3.04679 -24.29309,6.0576 -53.84567,14.40493 -81.44001,23.00326 -8.0639,2.51271 -10.32474,3.10816 -10.63872,2.80202 -0.2193,-0.21383 -9.23651,-20.97619 -20.03821,-46.13859 C 514.21613,363.74406 460.12707,238.95314 459.6881,238.96794 c -0.36592,0.0123 -17.67745,40.40118 -64.01553,149.35206 -20.72502,48.72906 -128.46231,302.69498 -135.11177,318.49504 -0.61456,1.46026 -1.03638,2.73603 -0.93738,2.83504 0.099,0.099 4.83224,-2.55549 10.5183,-5.89885 45.81158,-26.93696 92.46835,-51.31065 140.25831,-73.27158 169.2546,-77.77757 351.76594,-125.46544 526.24003,-137.49981 34.55089,-2.38314 63.01335,-3.24115 97.92004,-2.95184 27.1027,0.22461 40.7809,0.68182 64.32,2.14989 125.4279,7.82262 241.1688,35.90185 342.1539,83.00797 1.801,0.84012 2.4003,1.32656 2.0572,1.66969 -0.095,0.0951 -5.4736,-0.62861 -11.952,-1.60835 -32.608,-4.9313 -63.1814,-8.61834 -95.7791,-11.55062 -10.4758,-0.94231 -17.244,-1.48464 -36.4,-2.91668 l -2.64,-0.19734 v 111.85626 111.85625 l -0.72,0.68375 c -1.7317,1.64454 -12.5859,10.18406 -20.08,15.79798 -34.9008,26.14442 -69.534,46.40314 -106.56,62.33238 -34.7742,14.96048 -72.1796,25.78064 -112.48,32.5368 -17.6512,2.95914 -33.1402,4.76157 -52.8,6.14429 -6.1848,0.43498 -41.04816,0.63677 -47.52004,0.27504 z M 692.8899,403.93402 c -6.56937,-14.74861 -52.24986,-119.77582 -52.24986,-120.13134 0,-0.71118 13.33818,-17.12402 24.93479,-30.68268 41.88016,-48.96589 79.06749,-80.03178 124.50522,-104.01031 41.73009,-22.02193 87.55003,-35.77941 137.92001,-41.41061 7.37735,-0.82476 14.52212,-1.4456 24.96,-2.16887 9.37965,-0.64994 46.56929,-0.54521 57.12004,0.16085 79.2294,5.30208 143.2488,24.33329 200.7996,59.69223 6.4528,3.96458 17.4238,11.17486 23.6804,15.56311 11.3131,7.93475 28.16,20.93398 28.16,21.72852 0,0.68221 -72.4711,86.7698 -73.0118,86.72992 -0.2622,-0.0193 -2.9138,-1.97712 -5.8925,-4.35065 -46.2921,-36.8876 -88.2072,-57.26394 -140.3369,-68.22245 -32.0418,-6.73572 -65.56562,-8.85879 -96.11884,-6.08723 -32.92928,2.9871 -62.23485,11.10981 -90.02029,24.9512 -40.60445,20.22721 -79.09834,51.38543 -111.66375,90.38429 -18.63085,22.31149 -34.42554,46.44477 -47.01757,71.84 -2.1817,4.4 -4.15427,8.0423 -4.38346,8.09402 -0.24665,0.0556 -0.81193,-0.79322 -1.38509,-2.08 z"
       id="path869"
       inkscape:connector-curvature="0" />
    <path
       style="fill:#f3827b;stroke-width:0.32000002"
       d="m 960.48007,902.2081 c -0.88,-0.0625 -4.33601,-0.26631 -7.68001,-0.45293 -42.93805,-2.39623 -84.32615,-12.14362 -121.28,-28.56288 -71.4435,-31.74365 -128.52542,-88.12647 -170.1563,-168.07229 -5.0282,-9.6559 -6.83386,-13.5432 -6.45572,-13.89789 0.61258,-0.57459 34.39681,-11.68553 53.5027,-17.59597 19.53171,-6.04214 49.71277,-14.74614 51.13219,-14.74614 0.54074,0 1.44819,1.27693 4.45002,6.26198 19.07091,31.67053 42.03427,58.86004 67.68711,80.14416 22.06707,18.30903 47.55034,32.63962 74.18711,41.71933 20.23145,6.89632 40.85833,10.94416 62.92742,12.34896 6.57834,0.41875 26.67645,0.42029 33.29091,0.003 23.8882,-1.50857 48.1971,-5.82793 73.0659,-12.98272 40.6694,-11.7007 75.6233,-28.40976 104.6075,-50.00573 l 5.1989,-3.87363 0.081,-87.72822 c 0.067,-72.78912 0.01,-87.756 -0.3447,-87.89162 -1.1194,-0.42953 -47.871,0.70867 -69.6541,1.69584 -210.52689,9.54048 -421.68293,60.29725 -618.72007,148.72515 -39.76794,17.8474 -84.7032,40.10381 -122.08,60.46618 -62.63072,34.12035 -123.13336,71.88595 -181.67193,113.3992 l -9.19192,6.51792 h -57.74921 c -31.762055,0 -57.821218,-0.11654 -57.909244,-0.25898 -0.08803,-0.14243 5.964017,-14.29043 13.448987,-31.44 C 165.0562,663.77344 291.66344,373.92426 385.87279,158.4 l 19.5129,-44.64 h 56.73137 56.73133 L 600.585,300.89254 c 44.95514,102.92288 81.66298,187.20618 81.573,187.29616 -0.09,0.09 -5.25635,1.45924 -11.4808,3.04276 -27.20253,6.92041 -56.97002,15.37449 -82.62458,23.46569 -3.66708,1.15658 -6.91792,2.10285 -7.22413,2.10285 -0.43299,0 -3.03149,-5.7777 -11.69348,-26 -23.22883,-54.23027 -44.2911,-103.06131 -85.61027,-198.48 -12.88004,-29.744 -23.48164,-54.14343 -23.55911,-54.22095 -0.0775,-0.0775 -0.33187,0.0665 -0.56534,0.32 -0.23347,0.25352 -6.22727,14.06895 -13.31952,30.70095 -51.13482,119.91594 -71.46468,167.7599 -150.65955,354.56 -19.36288,45.672 -35.50583,83.73594 -35.87322,84.58653 -0.75992,1.75939 -0.81494,2.13347 -0.31378,2.13347 0.19482,0 3.11082,-1.63642 6.48,-3.63651 55.45099,-32.91776 112.82568,-62.30096 172.52581,-88.35536 168.85896,-73.69367 348.35042,-117.32224 520.00003,-126.3952 42.20674,-2.23095 85.00934,-2.34266 125.60004,-0.32781 121.6871,6.04029 234.3989,30.83699 333.76,73.42755 10.2498,4.39351 23.705,10.47146 24.144,10.90624 0.4973,0.49255 -0.5664,0.37795 -10.4478,-1.1255 -40.064,-6.09578 -82.8111,-10.86922 -124.7362,-13.92893 -4.84,-0.35325 -9.1238,-0.64275 -9.5196,-0.64336 h -0.7195 l -0.08,112.07133 -0.08,112.07136 -3.2,2.66928 c -8.5611,7.14128 -23.3195,18.18841 -35.9242,26.89053 -54.7963,37.83043 -110.4988,62.3774 -172.8758,76.183 -27.1672,6.01277 -52.5491,9.6273 -81.28,11.57476 -4.94214,0.335 -38.88448,0.67747 -42.40003,0.42784 z M 667.36702,345.37197 c -14.57635,-33.38943 -26.57053,-60.96826 -26.6537,-61.28629 -0.16486,-0.63041 5.0609,-7.25906 17.22221,-21.84568 29.96887,-35.94545 56.19297,-61.78229 83.57233,-82.33817 45.55341,-34.2006 98.73767,-57.20978 156.5722,-67.73806 21.03059,-3.82843 40.01085,-5.91603 62.88001,-6.91604 10.79078,-0.47185 38.32365,-0.19524 48.80003,0.49026 53.8965,3.52666 101.83,13.76537 143.52,30.65624 36.0807,14.61823 70.3582,34.93105 104.24,61.77258 2.86,2.26572 5.1996,4.28907 5.1992,4.49634 0,0.42876 -71.707,85.92932 -72.5642,86.52371 -0.4818,0.33414 -1.2772,-0.18325 -5.8365,-3.79675 -27.0867,-21.46805 -52.3537,-37.32966 -76.6385,-48.11053 -33.7823,-14.99714 -70.1883,-23.87058 -111.20003,-27.10338 -7.14211,-0.56298 -37.1232,-0.56259 -43.68001,6.4e-4 -25.38662,2.18047 -44.14061,5.86214 -64.64,12.68976 -11.59712,3.86259 -19.80003,7.27259 -31.23104,12.98296 -65.26106,32.60117 -125.0378,94.00289 -158.94955,163.27051 -1.87408,3.828 -3.5655,6.96 -3.75869,6.96 -0.19318,0 -12.27737,-27.31862 -26.85376,-60.70803 z"
       id="path867"
       inkscape:connector-curvature="0" />
    <path
       style="fill:#9e9e9f;stroke-width:0.32000002"
       d="m 960.48007,902.2081 c -0.88,-0.0625 -4.33601,-0.26631 -7.68001,-0.45293 -42.93805,-2.39623 -84.32615,-12.14362 -121.28,-28.56288 -71.4435,-31.74365 -128.52542,-88.12647 -170.1563,-168.07229 -5.0282,-9.6559 -6.83386,-13.5432 -6.45572,-13.89789 0.61258,-0.57459 34.39681,-11.68553 53.5027,-17.59597 19.53171,-6.04214 49.71277,-14.74614 51.13219,-14.74614 0.54074,0 1.44819,1.27693 4.45002,6.26198 19.07091,31.67053 42.03427,58.86004 67.68711,80.14416 22.06707,18.30903 47.55034,32.63962 74.18711,41.71933 20.23145,6.89632 40.85833,10.94416 62.92742,12.34896 6.57834,0.41875 26.67645,0.42029 33.29091,0.003 23.8882,-1.50857 48.1971,-5.82793 73.0659,-12.98272 40.67,-11.70086 75.6231,-28.40966 104.6087,-50.00659 l 5.2,-3.8745 0.048,-87.52659 c 0.026,-48.13961 0.062,-87.70659 0.08,-87.92659 0.025,-0.31482 -2.4213,-0.37958 -11.488,-0.3041 -58.0721,0.48336 -120.218,4.50541 -179.36003,11.60807 C 774.25256,594.7639 559.48125,664.74826 361.61855,774.48762 302.71209,807.15789 245.90341,842.9832 190.40001,882.46266 l -6.88,4.89372 -57.84,0.003 c -31.812004,0 -57.840005,-0.0774 -57.840005,-0.1742 0,-0.19376 2.292461,-5.45002 80.801175,-185.264 74.16459,-169.86432 159.79474,-365.87296 235.52531,-539.12089 l 21.36695,-48.88088 56.61901,0.0809 56.61901,0.0809 81.42263,186.4 c 44.78247,102.52 81.50135,186.70342 81.59751,187.0743 0.1656,0.63853 -0.34829,0.80493 -9.68832,3.13699 -25.32919,6.32429 -58.10714,15.61517 -84.71847,24.01331 -3.6824,1.16212 -6.79354,2.00096 -6.91363,1.86416 -0.12013,-0.13683 -4.21738,-9.60876 -9.10503,-21.04876 -19.00627,-44.48615 -43.38448,-101.0234 -84.09895,-195.04 -30.41879,-70.24203 -27.11008,-62.72 -27.58848,-62.72 -0.20822,0 -1.10176,1.692 -1.98563,3.76 -0.88388,2.068 -7.94653,18.592 -15.69476,36.72 -41.48598,97.06038 -183.43831,431.5079 -183.43831,432.18937 0,0.68077 1.24251,0.0776 7.40369,-3.59392 16.12155,-9.60713 37.88577,-21.92557 55.47631,-31.39933 200.88306,-108.18979 426.65683,-172.79824 640.96005,-183.42006 23.35523,-1.15757 29.88294,-1.29344 62.24003,-1.29542 32.4599,-0.003 39.0818,0.13731 61.6,1.29587 120.0273,6.17552 231.448,30.716 329.7627,72.63049 8.8243,3.76208 21.6212,9.47828 23.8373,10.64781 1.7343,0.91527 1.185,0.89367 -6.0973,-0.23987 -22.5488,-3.50976 -53.3005,-7.43923 -78.8627,-10.07712 -16.4243,-1.69491 -48.6612,-4.40128 -56.2376,-4.72131 l -2.3176,-0.0979 -0.082,112.15133 -0.082,112.15136 -3.2,2.66928 c -8.5611,7.14125 -23.3195,18.18841 -35.9242,26.89053 -54.7963,37.83043 -110.4988,62.3774 -172.8758,76.183 -27.1672,6.01277 -52.5491,9.6273 -81.28,11.57476 -4.94214,0.335 -38.88448,0.67747 -42.40003,0.42784 z M 667.36702,345.37197 c -14.57635,-33.38943 -26.57053,-60.96826 -26.6537,-61.28629 -0.16486,-0.63041 5.0609,-7.25906 17.22221,-21.84568 29.96887,-35.94545 56.19297,-61.78229 83.57233,-82.33817 45.55341,-34.2006 98.73767,-57.20978 156.5722,-67.73806 21.03059,-3.82843 40.01085,-5.91603 62.88001,-6.91604 10.79078,-0.47185 38.32365,-0.19524 48.80003,0.49026 53.8965,3.52666 101.83,13.76537 143.52,30.65624 36.0807,14.61823 70.3582,34.93105 104.24,61.77258 2.86,2.26572 5.1996,4.28907 5.1992,4.49634 0,0.42876 -71.707,85.92932 -72.5642,86.52371 -0.4818,0.33414 -1.2772,-0.18325 -5.8365,-3.79675 -27.0867,-21.46805 -52.3537,-37.32966 -76.6385,-48.11053 -33.7823,-14.99714 -70.1883,-23.87058 -111.20003,-27.10338 -7.14211,-0.56298 -37.1232,-0.56259 -43.68001,6.4e-4 -25.38662,2.18047 -44.14061,5.86214 -64.64,12.68976 -11.59712,3.86259 -19.80003,7.27259 -31.23104,12.98296 -65.26106,32.60117 -125.0378,94.00289 -158.94955,163.27051 -1.87408,3.828 -3.5655,6.96 -3.75869,6.96 -0.19318,0 -12.27737,-27.31862 -26.85376,-60.70803 z"
       id="path865"
       inkscape:connector-curvature="0" />
    <path
       style="fill:#f06057;stroke-width:0.32000002"
       d="M 960.64007,901.72918 C 908.39869,899.61603 861.23798,887.90979 818.16524,866.36403 758.32479,836.43072 708.79691,787.83997 671.09861,722.08 c -6.99463,-12.20122 -15.93364,-29.59008 -15.62487,-30.39469 0.28886,-0.75277 40.95616,-14.04221 65.96631,-21.55673 12.59069,-3.78301 37.56496,-10.92858 38.1961,-10.92858 0.15357,0 1.54784,2.124 3.0984,4.72 54.30416,90.91958 133.37418,138.25312 227.66552,136.28707 23.99473,-0.50032 46.50533,-3.58899 71.36003,-9.79129 46.2081,-11.53092 86.6787,-29.97216 118.88,-54.17015 l 4.8,-3.60704 0.081,-87.71961 c 0.064,-69.9369 0,-87.78436 -0.32,-88.03879 -0.3935,-0.31344 -29.9305,-0.0447 -41.8406,0.38064 -19.2315,0.68688 -24.2439,0.88627 -32.96,1.31123 -215.54039,10.509 -429.51618,63.43332 -630.40007,155.92183 -32.43584,14.93373 -68.18829,32.77305 -99.36,49.5775 -65.52584,35.32451 -128.94117,74.78951 -190.24002,118.39127 l -6.88,4.89372 -57.84,0.003 c -31.812004,0 -57.840005,-0.0774 -57.840005,-0.1742 0,-0.19376 2.292461,-5.45002 80.801175,-185.264 74.16459,-169.86432 159.79474,-365.87296 235.52531,-539.12089 l 21.36695,-48.88088 56.61901,0.0809 56.61901,0.0809 81.42263,186.4 c 44.78247,102.52 81.50135,186.70342 81.59751,187.0743 0.1656,0.63853 -0.34829,0.80493 -9.68832,3.13699 -25.32919,6.32429 -58.10714,15.61517 -84.71847,24.01331 -3.6824,1.16212 -6.79354,2.00096 -6.91363,1.86416 -0.12013,-0.13683 -4.21738,-9.60876 -9.10503,-21.04876 -19.00627,-44.48615 -43.38448,-101.0234 -84.09895,-195.04 -30.41879,-70.24203 -27.11008,-62.72 -27.58848,-62.72 -0.20822,0 -1.10176,1.692 -1.98563,3.76 -0.88388,2.068 -7.94653,18.592 -15.69476,36.72 -41.48598,97.06038 -183.43831,431.5079 -183.43831,432.18937 0,0.68077 1.24251,0.0776 7.40369,-3.59392 16.12155,-9.60713 37.88577,-21.92557 55.47631,-31.39933 200.88306,-108.18979 426.65683,-172.79824 640.96005,-183.42006 23.35523,-1.15757 29.88294,-1.29344 62.24003,-1.29542 32.4599,-0.003 39.0818,0.13731 61.6,1.29587 120.0273,6.17552 231.448,30.716 329.7627,72.63049 8.8243,3.76208 21.6212,9.47828 23.8373,10.64781 1.7343,0.91527 1.185,0.89367 -6.0973,-0.23987 -37.6853,-5.86576 -82.729,-10.98202 -122.5427,-13.91888 -5.984,-0.44141 -11.7033,-0.8752 -12.7095,-0.964 -1.0062,-0.0888 -2.0502,-0.0767 -2.32,0.0269 -0.4394,0.16861 -0.4905,11.85642 -0.4905,112.15075 v 111.96256 l -3.12,2.58627 c -16.3531,13.55565 -41.1961,31.10996 -62.32,44.03591 -21.7681,13.32013 -46.3502,25.7095 -70.3428,35.45273 -60.808,24.69373 -135.4007,37.92365 -199.25723,35.34071 z M 693.7475,404.72 c -0.17532,-0.396 -12.10934,-27.72 -26.52,-60.72 -25.45094,-58.28203 -26.18685,-60.02291 -25.70083,-60.8 1.22601,-1.96029 17.00627,-21.1725 25.4952,-31.04 19.3647,-22.50947 39.47072,-42.87507 56.97818,-57.71385 22.98765,-19.48363 46.10186,-34.79197 72.48,-48.0029 28.37565,-14.21134 55.58874,-23.89028 86.40001,-30.73006 31.98477,-7.10029 61.70391,-10.23449 97.12001,-10.24235 23.26313,-0.005 41.20903,1.08461 63.04003,3.82817 52.9774,6.6578 96.2585,19.29765 138.72,40.51189 25.068,12.52426 50.5688,28.96816 75.2997,48.55614 3.501,2.77295 5.0183,4.16602 4.9252,4.52199 -0.1641,0.62762 -71.8785,86.07097 -72.2411,86.07097 -0.1416,0 -2.3919,-1.7047 -5.0007,-3.78822 -13.0936,-10.45752 -27.9667,-21.02183 -41.3831,-29.39438 -34.8514,-21.74913 -74.3954,-36.05448 -118.2771,-42.78773 -57.37839,-8.80421 -111.00975,-2.96611 -157.08294,17.09945 -4.97831,2.16813 -17.36887,8.36638 -22.88,11.44551 -43.29191,24.1876 -83.92986,60.92069 -115.56039,104.45628 -12.51556,17.22615 -24.20093,36.65143 -32.6338,54.24909 -1.37053,2.86 -2.57459,5.2 -2.67571,5.2 -0.10109,0 -0.3273,-0.324 -0.50266,-0.72 z"
       id="path863"
       inkscape:connector-curvature="0" />
    <path
       style="fill:#ed4035;stroke-width:0.32000002"
       d="M 960.64007,901.72918 C 908.39869,899.61603 861.23798,887.90979 818.16524,866.36403 758.32479,836.43072 708.79691,787.83997 671.09861,722.08 c -6.99463,-12.20122 -15.93364,-29.59008 -15.62487,-30.39469 0.28886,-0.75277 40.95616,-14.04221 65.96631,-21.55673 12.59069,-3.78301 37.56496,-10.92858 38.1961,-10.92858 0.15357,0 1.54784,2.124 3.0984,4.72 54.30416,90.91958 133.37418,138.25312 227.66552,136.28707 23.99473,-0.50032 46.50533,-3.58899 71.36003,-9.79129 46.2081,-11.53092 86.6787,-29.97216 118.88,-54.17015 l 4.8,-3.60704 0.081,-88.07929 0.081,-88.0793 -10.1605,10e-5 c -11.8121,9e-5 -31.14,0.44601 -48.8806,1.12771 -201.49239,7.74265 -403.51736,53.10886 -593.92006,133.36918 -119.00542,50.16426 -234.10663,114.33005 -339.81167,189.43575 -4.20841,2.99014 -8.1525,5.77654 -8.76466,6.19196 l -1.11301,0.7553 h -57.21646 c -31.469056,0 -57.28661,-0.1135 -57.372344,-0.25222 C 68.192475,886.83366 109.41815,792.3007 269.7643,425.28 364.87826,207.57104 404.24464,117.53989 405.06777,115.84 l 0.85226,-1.76 56,-0.0756 c 30.8,-0.0416 56.1586,0.0304 56.35239,0.16 0.44006,0.29422 163.45732,373.49261 163.24049,373.70941 -0.0869,0.0869 -5.53882,1.52711 -12.11542,3.20048 -26.28247,6.68743 -54.5683,14.72515 -80.55345,22.89021 -4.46378,1.40262 -8.15286,2.5064 -8.19792,2.45286 C 580.60106,516.36381 574.337,501.776 566.72599,484 545.2296,433.79386 517.95597,370.59693 473.79405,268.66349 c -7.31447,-16.88308 -13.43674,-30.8342 -13.60503,-31.00249 -0.16828,-0.16829 -0.50278,-0.23045 -0.74336,-0.13814 -0.40761,0.15642 -7.63181,16.92531 -39.52986,91.75714 -44.6815,104.82141 -161.38733,380.00154 -161.60174,381.04 -0.24574,1.19024 0.90246,0.89062 4.15471,-1.08419 5.45144,-3.31024 23.34507,-13.71123 32.25125,-18.74666 C 337.1806,666.48262 384.57321,642.6743 429.73389,622.66314 604.657,545.1528 790.13497,500.13315 968.00007,492.01382 c 37.07233,-1.69232 76.97753,-1.69273 112.64003,0 128.3626,6.08855 245.3636,32.5266 348.8945,78.83773 4.364,1.95207 8.468,3.84138 9.12,4.19843 1.1628,0.63674 1.1671,0.64608 0.2255,0.48746 -0.528,-0.0889 -5.352,-0.81216 -10.72,-1.60717 -39.7082,-5.8808 -77.7417,-10.14515 -115.52,-12.95216 -7.128,-0.52963 -13.68,-1.01926 -14.56,-1.08809 -0.88,-0.0688 -1.78,-0.06 -2,0.0198 -0.319,0.11548 -0.4,22.8614 -0.4,112.27494 v 112.13011 l -3.12,2.58627 c -16.3531,13.55565 -41.1961,31.10996 -62.32,44.03591 -21.7681,13.32013 -46.3502,25.7095 -70.3428,35.45273 -60.808,24.69373 -135.4007,37.92365 -199.25723,35.34071 z M 693.7475,404.72 c -0.17532,-0.396 -12.10934,-27.72 -26.52,-60.72 -25.45094,-58.28203 -26.18685,-60.02291 -25.70083,-60.8 1.22601,-1.96029 17.00627,-21.1725 25.4952,-31.04 19.3647,-22.50947 39.47072,-42.87507 56.97818,-57.71385 22.98765,-19.48363 46.10186,-34.79197 72.48,-48.0029 28.37565,-14.21134 55.58874,-23.89028 86.40001,-30.73006 31.98477,-7.10029 61.70391,-10.23449 97.12001,-10.24235 23.26313,-0.005 41.20903,1.08461 63.04003,3.82817 52.9774,6.6578 96.2585,19.29765 138.72,40.51189 25.068,12.52426 50.5688,28.96816 75.2997,48.55614 3.501,2.77295 5.0183,4.16602 4.9252,4.52199 -0.1641,0.62762 -71.8785,86.07097 -72.2411,86.07097 -0.1416,0 -2.3919,-1.7047 -5.0007,-3.78822 -13.0936,-10.45752 -27.9667,-21.02183 -41.3831,-29.39438 -34.8514,-21.74913 -74.3954,-36.05448 -118.2771,-42.78773 -57.37839,-8.80421 -111.00975,-2.96611 -157.08294,17.09945 -4.97831,2.16813 -17.36887,8.36638 -22.88,11.44551 -43.29191,24.1876 -83.92986,60.92069 -115.56039,104.45628 -12.51556,17.22615 -24.20093,36.65143 -32.6338,54.24909 -1.37053,2.86 -2.57459,5.2 -2.67571,5.2 -0.10109,0 -0.3273,-0.324 -0.50266,-0.72 z"
       id="path861"
       inkscape:connector-curvature="0" />
    <path
       style="fill:#555456;stroke-width:0.32000002"
       d="M 960.64007,901.72918 C 908.39869,899.61603 861.23798,887.90979 818.16524,866.36403 758.32479,836.43072 708.79691,787.83997 671.09861,722.08 c -6.99463,-12.20122 -15.93364,-29.59008 -15.62487,-30.39469 0.28886,-0.75277 40.95616,-14.04221 65.96631,-21.55673 12.59069,-3.78301 37.56496,-10.92858 38.1961,-10.92858 0.15357,0 1.54784,2.124 3.0984,4.72 54.30416,90.91958 133.37418,138.25312 227.66552,136.28707 23.99473,-0.50032 46.50533,-3.58899 71.36003,-9.79129 46.2081,-11.53092 86.6787,-29.97216 118.88,-54.17015 l 4.8,-3.60704 0.081,-87.91929 0.081,-87.9193 1.5195,0.0205 c 0.8356,0.0112 25.5674,0.76736 54.9594,1.68 l 53.44,1.65936 0.08,112.07642 0.081,112.07638 -3.1205,2.58666 c -16.3535,13.55606 -41.1963,31.11017 -62.3204,44.03628 -21.7681,13.32013 -46.3502,25.70951 -70.3428,35.45274 -60.808,24.69373 -135.4007,37.92365 -199.25723,35.3407 z M 693.7475,404.72 c -0.17532,-0.396 -12.10934,-27.72 -26.52,-60.72 -25.45094,-58.28203 -26.18685,-60.02291 -25.70083,-60.8 1.22601,-1.96029 17.00627,-21.1725 25.4952,-31.04 19.3647,-22.50947 39.47072,-42.87507 56.97818,-57.71385 22.98765,-19.48363 46.10186,-34.79197 72.48,-48.0029 28.37565,-14.21134 55.58874,-23.89028 86.40001,-30.73006 31.98477,-7.10029 61.70391,-10.23449 97.12001,-10.24235 23.26313,-0.005 41.20903,1.08461 63.04003,3.82817 52.9774,6.6578 96.2585,19.29765 138.72,40.51189 25.068,12.52426 50.5688,28.96816 75.2997,48.55614 3.501,2.77295 5.0183,4.16602 4.9252,4.52199 -0.1641,0.62762 -71.8785,86.07097 -72.2411,86.07097 -0.1416,0 -2.3919,-1.7047 -5.0007,-3.78822 -13.0936,-10.45752 -27.9667,-21.02183 -41.3831,-29.39438 -34.8514,-21.74913 -74.3954,-36.05448 -118.2771,-42.78773 -57.37839,-8.80421 -111.00975,-2.96611 -157.08294,17.09945 -4.97831,2.16813 -17.36887,8.36638 -22.88,11.44551 -43.29191,24.1876 -83.92986,60.92069 -115.56039,104.45628 -12.51556,17.22615 -24.20093,36.65143 -32.6338,54.24909 -1.37053,2.86 -2.57459,5.2 -2.67571,5.2 -0.10109,0 -0.3273,-0.324 -0.50266,-0.72 z"
       id="path859"
       inkscape:connector-curvature="0" />
    <path
       style="fill:#403f40;stroke-width:0.32000002"
       d="M 967.84007,901.54397 C 892.14121,899.82106 825.43826,877.74358 769.92005,836.03594 728.99851,805.29395 695.35781,765.3735 666.87889,713.76 c -4.26461,-7.72893 -11.24931,-21.57946 -11.04723,-21.9064 0.22666,-0.36678 31.94835,-10.91376 46.08839,-15.32371 18.09805,-5.64435 41.81606,-12.63955 54.79069,-16.15949 l 2.95069,-0.80051 2.61917,4.37507 c 18.76732,31.34896 40.7023,57.92678 64.92122,78.66275 38.03603,32.56602 82.45591,51.77475 131.19824,56.73482 18.3713,1.86947 40.15988,1.69501 59.36004,-0.47527 18.1456,-2.05107 37.6083,-5.96396 56.64,-11.3872 41.4669,-11.81638 76.7245,-28.67395 106.48,-50.91088 l 5.04,-3.76649 V 645.12134 557.44 l 2.96,3.2e-4 c 1.628,1.9e-4 26.216,0.72003 54.64,1.59968 28.424,0.87965 51.716,1.59949 51.76,1.59968 0.044,1.6e-4 0.08,50.29901 0.08,111.7752 v 111.77485 l -6.64,5.29238 c -29.78,23.73591 -62.709,45.01485 -93.5456,60.44973 -33.3578,16.6968 -64.8962,28.26483 -101.0944,37.0807 -35.051,8.53645 -69.6989,13.30445 -104.80003,14.42183 -9.27188,0.29517 -12.55047,0.3119 -21.44,0.1096 z M 693.43688,402.96 c -6.30061,-14.22803 -51.83684,-118.81296 -51.83684,-119.05584 0,-0.18557 2.47581,-3.40792 5.50176,-7.16078 41.39319,-51.33643 73.50574,-82.43728 111.1443,-107.64274 30.7273,-20.57718 65.34896,-36.64743 101.34561,-47.04133 62.09766,-17.93047 133.37044,-21.14102 204.88839,-9.22939 69.6805,11.6056 125.8829,35.70366 182.4,78.20821 6.9905,5.2573 14.88,11.47151 14.88,11.72028 0,0.0714 -16.2019,19.42113 -36.0041,42.99942 l -36.0042,42.8696 -4.8758,-3.8803 c -10.5478,-8.39412 -23.6821,-17.91013 -34.3062,-24.85538 -33.277,-21.75401 -68.2019,-36.0269 -108.1697,-44.20619 -18.0229,-3.68833 -35.1894,-5.85348 -53.60003,-6.76038 -8.20535,-0.4042 -28.04167,-0.21302 -35.04001,0.3377 -31.37389,2.46892 -57.81661,8.5855 -83.04,19.20836 -5.56045,2.34179 -18.35354,8.61308 -24.48,12.00032 -25.37392,14.02891 -50.60045,32.84605 -72.29729,53.92844 -32.06614,31.15805 -56.75232,64.50714 -75.50403,102 -2.22263,4.444 -4.10586,8.08 -4.18496,8.08 -0.0791,0 -0.44669,-0.684 -0.8169,-1.52 z"
       id="path857"
       inkscape:connector-curvature="0" />
  </g>
</svg>
